# xmcd CD database file
#
# Track frame offsets:
#	150
#	29688
#	57717
#	80258
#	109235
#	135100
#	158778
#	167643
#	190795
#	216430
#	243945
#
# Disc length: 3660 seconds
#
# Revision: 1
# Processed by: cddbd v1.5.2PL0 Copyright (c) Steve Scherf et al.
# Submitted via: CDex 1.70beta3
#
DISCID=930e4a0b
DTITLE=Flat Three - Rose en Bleu
DYEAR=2009
DGENRE=Jazz
TTITLE0=21 -twenty one- feat.IMAN
TTITLE1=Everyday Life feat.Misa Sugiyama
TTITLE2=Sweet Feelin' feat.Mika Arisaka
TTITLE3=Rose en Bleu
TTITLE4=Soul Dignity feat.Misa Sugiyama
TTITLE5=Sand Castle feat.IMAN
TTITLE6=Nothing
TTITLE7=Night and Silence feat.Misa Sugiyama
TTITLE8=Light Of Tangerines
TTITLE9=Southern Storm
TTITLE10=Sesso Brillante 〔Mooon Remix〕
EXTD=YEAR: 2009
EXTT0=
EXTT1=
EXTT2=
EXTT3=
EXTT4=
EXTT5=
EXTT6=
EXTT7=
EXTT8=
EXTT9=
EXTT10=
PLAYORDER=
